<?xml version="1.0" encoding="UTF-8"?> <!-- Generator: Adobe Illustrator 25.0.1, SVG Export Plug-In . SVG Version: 6.00 Build 0) --> <svg xmlns="http://www.w3.org/2000/svg" xmlns:xlink="http://www.w3.org/1999/xlink" version="1.1" id="Layer_1" x="0px" y="0px" viewBox="0 0 481.19 100" style="enable-background:new 0 0 481.19 100;" xml:space="preserve"> <g> <g> <g> <path style="opacity:0.5;fill-rule:evenodd;clip-rule:evenodd;fill:#863E8F;" d="M6.62,72.41c-7.06-6.13-8.44-18.5-4.29-25.38 c-1.14,3.71-1.17,8.85-0.42,11.52c0.48-0.14,1.48-1.35,1.93-1.82C2.86,62.4,4.53,68.82,6.62,72.41z"></path> <path style="opacity:0.5;fill-rule:evenodd;clip-rule:evenodd;fill:#863E8F;" d="M26.72,12.77c2.48-1.07,5.07-1.86,7.72-2.39l0,0 v0c2.4-0.47,4.85-0.72,7.31-0.76c1.52-0.02,3.04,0.04,4.55,0.18c-1.08,0.16-2.07,0.44-2.94,0.84c2.37-0.91,13.21,1.77,25.72,8.2 c2.24,1.71,4.33,3.62,6.23,5.71c4.22,4.69,7.46,10.2,9.54,16.16c1.36,3.93,2.21,8.03,2.52,12.18c0.16,2.22,0.16,4.46,0.01,6.68 c-0.47,6.68-2.32,13.2-5.45,19.12c-2.3,4.31-5.48,9.34-9.68,12.08c-0.31-2.22,7.36-10.43,8.51-12.71 c1.48-2.95,2.66-6.05,3.46-9.26c0.74-3.08,1.17-6.24,1.26-9.41c0.17-6.11-0.87-12.25-3.2-17.9c-2.16-5.15-5.66-11.14-10.86-13.79 c-3.55-1.7-8.48-1.33-12.36-2.73c-1.49-0.55-2.94-1.18-4.44-1.71c-4.46-1.59-9.11-2.47-13.85-2.6c-0.03,0-0.07,0-0.1,0 c-1.55-0.04-3.09-0.01-4.63,0.08c-8.38,0.9-11.19,6.74-13.7,8.41c-1.3,0.86-4.98,2.66-6.2,3.63c-1.59,1.26-4.3,5-5.89,5.68 c-2.11,0.9-3.91-0.06-4.39-0.73c-0.09-1.23,1.35-3.08,1.83-4.79c0.27-0.96-1.18-1.26-0.84-2.18c0.87-2.34,2.48-4.84,2.94-5.36 c0.28-0.31,0.56-0.62,0.85-0.93l0-0.01c0.03-2.07,1.89-4.34,2.98-5.92c0.52-0.75,1.09-1.46,1.64-2.18 c0.69-0.88,1.26-1.78,1.7-2.72c1.19-2.51,2.25-4.7,2.56-7.53c0.7,0.5,0.89,2.12,0.94,2.38c0.37,2.23-0.46,4.86-1.39,7.14 c0.42-0.35,0.84-0.68,1.27-1.01c3.78-2.96,9.23-7.35,8.94-12.83c0.08-0.03,0.15-0.02,0.22,0.01c0.68,0.37,0.51,2.01,0.45,2.63 C29.62,7.35,28.4,10.23,26.72,12.77z"></path> <path style="opacity:0.5;fill-rule:evenodd;clip-rule:evenodd;fill:#863E8F;" d="M33.66,18.43c1.98-1.49,4.54-2.22,6.95-2.66 c5.33-0.99,10.88-0.34,15.99,1.37c5.34,1.81,10.21,4.77,14.32,8.63c4.04,3.85,7.25,8.5,9.47,13.62 c2.25,5.23,3.42,10.87,3.47,16.56c0.04,5.99-1.19,11.92-3.55,17.42c-2.4,5.55-5.9,10.55-10.3,14.7c-4.28,4-9.32,7.11-14.81,9.17 c-2.72,1.01-5.54,1.76-8.4,2.22c-2.91,0.46-5.86,0.63-8.81,0.5c-6.03-0.29-11.97-1.81-17.36-4.54c-0.85-0.44-7.14-3.48-6.84-4.9 c2.52,1.1,4.83,2.68,7.33,3.83c5.18,2.37,10.76,3.84,16.46,4.03c0.15,0,0.3,0.01,0.45,0.01c5.63,0.08,11.23-0.95,16.46-3.05 c5.16-2.1,9.87-5.19,13.79-9.15c3.95-4.05,7.01-8.92,8.8-14.29c1.72-5.22,2.08-10.72,1.05-16.11c-0.9-4.79-2.69-9.43-5.08-13.67 c-1.1-1.94-2.34-3.79-3.71-5.54c-1.43-1.81-2.94-3.55-4.62-5.14c-3.31-3.1-7.13-5.6-11.3-7.38c-1.04-0.44-2.1-0.84-3.17-1.2 c-3.19-1.06-6.48-1.77-9.8-2.23C39.74,20.51,30.74,19.91,33.66,18.43z"></path> <path style="opacity:0.5;fill-rule:evenodd;clip-rule:evenodd;fill:#863E8F;" d="M37.36,16.4c4.91-0.99,10.03-0.43,14.77,1.12 c4.99,1.66,9.54,4.42,13.37,8.02c3.77,3.59,6.75,7.93,8.8,12.72c2.07,4.88,3.14,10.13,3.15,15.43c0,5.56-1.18,11.06-3.4,16.15 c-2.26,5.12-5.53,9.74-9.64,13.54c-3.98,3.66-8.66,6.5-13.74,8.36c-5.08,1.83-10.47,2.66-15.86,2.41 c-5.55-0.29-10.98-1.72-15.95-4.19c-0.66-0.33-1.32-0.68-1.96-1.05c-4.1-2.36-7.75-5.46-10.72-9.14 c-1.08-1.35-5.49-11.28-5.48-11.27c2.18,3.46,4.03,7.02,6.67,10.18c2.14,2.55,4.59,4.83,7.35,6.7c1.58,1.05,3.24,1.99,4.95,2.8 c4.77,2.23,9.94,3.48,15.21,3.61c5.06,0.1,10.11-0.81,14.8-2.73c4.62-1.91,8.82-4.75,12.25-8.39c3.44-3.7,5.99-8.12,7.53-12.93 c1.45-4.6,1.91-9.45,1.42-14.24c-0.44-4.39-1.64-8.67-3.55-12.65c-0.71-1.46-1.51-2.87-2.4-4.23c-1.43-2.18-3.04-4.24-4.87-6.11 c-3.03-3.07-6.59-5.56-10.5-7.38c-1.22-0.57-2.47-1.07-3.74-1.51c-2.85-0.98-5.77-1.64-8.68-2.42c-3.26-0.85-3.61-2.22,0.08-2.77 C37.27,16.41,37.31,16.4,37.36,16.4z"></path> <path style="opacity:0.5;fill-rule:evenodd;clip-rule:evenodd;fill:#863E8F;" d="M54.35,22.82c4.48,1.14,8.6,3.45,12.09,6.47 c3.75,3.3,6.73,7.39,8.8,11.93c2.11,4.67,3.23,9.73,3.33,14.85c0.09,5.41-0.98,10.77-3.08,15.76c-2.15,5.03-5.29,9.58-9.26,13.35 c-3.87,3.64-8.43,6.48-13.4,8.37c-4.98,1.87-10.3,2.75-15.62,2.57c-5.51-0.21-10.92-1.55-15.89-3.92 C16.4,89.82,10.97,86.02,7.4,81.87C4.8,78.11,3.82,75,5.91,75.88c1.15,1.83,2.45,3.56,3.89,5.17c3.48,3.87,7.73,6.96,12.47,9.1 c4.73,2.11,9.86,3.24,15.04,3.21c4.94-0.04,9.82-1.1,14.3-3.17c4.36-2.03,8.23-4.96,11.37-8.61c3.07-3.63,5.36-7.87,6.84-12.39 c1.39-4.3,1.98-8.84,1.73-13.36c-0.07-1.2-0.19-2.39-0.38-3.58c-0.46-2.97-1.22-5.88-2.35-8.67c-1.57-3.85-3.79-7.38-6.57-10.48 c-0.69-0.76-1.4-1.5-2.15-2.2c-2.42-2.3-5.12-4.23-7.7-6.33c-1.94-1.59-1.72-2.64,0.94-2.05C53.68,22.62,54.02,22.71,54.35,22.82 z"></path> <path style="opacity:0.5;fill-rule:evenodd;clip-rule:evenodd;fill:#863E8F;" d="M51.81,23.4c3.97,1.49,7.6,3.77,10.73,6.63 c3.61,3.32,6.48,7.38,8.45,11.86c2.07,4.74,3.09,9.87,3.05,15.04c-0.06,5.22-1.19,10.38-3.34,15.14c-2.1,4.6-5.1,8.74-8.81,12.18 c-3.71,3.42-8.07,6.08-12.82,7.81c-4.89,1.76-10.1,2.48-15.29,2.15c-5.12-0.35-10.13-1.73-14.68-4.11 c-4.31-2.27-8.13-5.38-11.2-9.15c-1.85-0.5-7.88-13.26-6.47-12.53c2.59,3.99,6.11,8.47,8.19,10.93c2.94,3.45,6.56,6.29,10.62,8.3 c4.26,2.08,8.92,3.22,13.65,3.35c4.72,0.11,9.42-0.79,13.74-2.68c4.1-1.8,7.79-4.44,10.84-7.72c2.96-3.21,5.26-6.96,6.81-11.04 c1.53-4.11,2.25-8.48,2.17-12.86c-0.08-3.73-0.76-7.43-2.02-10.93c-0.19-0.51-0.38-1.02-0.59-1.53c-1.54-3.8-3.7-7.3-6.42-10.37 c-2.33-2.61-5.02-4.84-7.96-6.72c-0.55-0.35-1.1-0.69-1.65-1.03c-5.16-3.16-4.75-5.21,1.51-3.25 C50.82,23.02,51.32,23.2,51.81,23.4z"></path> <path style="opacity:0.5;fill-rule:evenodd;clip-rule:evenodd;fill:#863E8F;" d="M14.52,27.98c0.31,0.3,0.16,1.26-0.9,2.15 c-1.06,0.89-3.25,1.84-3.42,1.6c-0.12-0.35,0.76-1.54,1.81-2.44C13.07,28.41,14.21,27.69,14.52,27.98z"></path> </g> <g> <path style="opacity:0.5;fill-rule:evenodd;clip-rule:evenodd;fill:#8B4291;" d="M48.88,5.19c1.44-6.71,18.51-5.94,26.5-2.1 c3.79,1.82,6.3,2.67,9.89,5.17c2.98,2.08,10.88,7.29,11.76,10.91c-1.03,0.66-6.81-4.71-8.01-5.5c-6.1-3.89-14.5-8.66-18.74-4.38 c-1.75,1.67-3.26,3.24-5.92,3.77c-0.41,0.07-0.85,0.1-1.32,0.1c-3.68-1.57-7.15-2.64-10.25-3.16C50.8,8.68,48.96,6.91,48.88,5.19 z"></path> <path style="opacity:0.5;fill-rule:evenodd;clip-rule:evenodd;fill:#8B4291;" d="M54.26,4.79c1.01-10.18,23.92-2.29,35.3,6.51 c9.39,7.27,26.55,26.18,30.78,39.63c-2.67-2.26-31.72-38.22-49.47-36c-1,0.12-2.19-0.16-3.29-0.4c-1.62-0.43-3.26-0.95-4.88-1.64 C60.34,11.86,53.96,7.8,54.26,4.79z"></path> <path style="opacity:0.5;fill-rule:evenodd;clip-rule:evenodd;fill:#8B4291;" d="M55.17,8.03c3.13-3.56,10.2-1.63,15.48,0.57 c8.57,3.38,16.89,9.47,24.14,16.15c2.55,2.37,5.01,4.85,7.34,7.42c1.35,1.51,9.62,10.49,8.2,11.93c-2.4-0.82-5.45-5.86-7.25-7.73 c-3.31-3.36-6.81-6.58-10.57-9.36c-5.45-3.92-10.1-4.9-14.96-5.7c-8.02-5.56-16.04-9.34-22.68-10.89 C54.38,9.45,54.34,8.57,55.17,8.03L55.17,8.03z M71.88,20.33c-5.05-2.77-9.91-4.95-14.16-6.54c0.82,0.73,1.62,1.32,2.15,1.64 c1.88,1.1,3.82,2.03,5.74,2.92c1.11,0.49,2.24,0.97,3.36,1.29C69.96,19.92,70.93,20.14,71.88,20.33z"></path> <path style="opacity:0.5;fill-rule:evenodd;clip-rule:evenodd;fill:#8B4291;" d="M61.26,8.74c2.3-1.72,6.06-1.25,9.46-0.28 c8.77,2.21,17.79,8.48,25.39,14.97c4.72,4.09,9.19,8.54,13.24,13.28c1.31,1.53,8.98,14.4,8.83,18.97 c-2.79-3.11-15.63-24.06-25.27-29.06c-4.3-2.11-8.58-2.6-12.88-3.54c-6.23-4.61-12.54-8.17-18.3-10.47 C60.43,10.95,59.74,9.31,61.26,8.74z"></path> <path style="opacity:0.5;fill-rule:evenodd;clip-rule:evenodd;fill:#8B4291;" d="M64.3,13.72c1.1,0.09,2.24,0.31,3.38,0.63 c8.1,1.93,16.42,8.12,23.25,14.27c7.17,6.53,13.73,14,18.91,21.96c0.68,1.06,6.21,10.02,4.18,9.99 c-2.27-1.43-3.76-5.46-5.24-7.53c-2.55-3.45-5.3-6.75-8.29-9.76C90.15,29.57,76.26,19.12,64.3,13.72L64.3,13.72z M99.42,42.21 c-11.29-13.33-26.86-22.36-38.8-27.28c-0.02,1.55,1.88,4.16,3.27,5.34c0.17,0.14,0.34,0.28,0.51,0.42 c2.59,2.1,5.48,4.13,8.31,5.67c4.61,2.46,9.28,4.29,13.93,6.54C91.35,35.3,95.58,38.51,99.42,42.21z"></path> <path style="opacity:0.5;fill-rule:evenodd;clip-rule:evenodd;fill:#8B4291;" d="M68.91,15.4c7.56,0.05,27.5,10.46,34.24,16.05 c5.15,4.35,17.57,19.29,14.93,30.55c-1.04-2.12-5.24-10.43-19.27-20.9c-9.11-11.35-20.56-20.28-31-25.68 C68.09,15.35,68.45,15.34,68.91,15.4L68.91,15.4z M97.81,40.36c-9.1-10.07-20.56-17.54-30.66-22.49 c0.51,1.41,1.67,3.06,2.66,3.98c2.79,2.58,6.04,5.08,9.2,7.01c2.48,1.49,5,2.87,7.53,4.15C90.84,35.53,94.57,38,97.81,40.36z"></path> <path style="opacity:0.5;fill-rule:evenodd;clip-rule:evenodd;fill:#8B4291;" d="M90.7,32.18c9.6,7.33,19.81,19.71,24.03,30.14 c0.4,1,3.14,7.12,1.95,9.54c-6.82-10.2-14.69-17.39-23.67-25.68c-3.35-3.09-7.02-5.95-11.02-8.64 c-3.25-2.19,9.05,10.33,5.86,7.99C75.75,37.98,55.06,19.15,50.65,11.5c3.16,0.83,7.08,2.18,11.43,4.05 c3.09,1.39,6.63,3.09,10.37,5.1c11,6.12,22.81,15.04,31.07,26.88C99.77,41.9,95.39,36.75,90.7,32.18z"></path> <path style="opacity:0.5;fill-rule:evenodd;clip-rule:evenodd;fill:#8B4291;" d="M72.73,21.19c0.74,0.26,1.47,0.56,2.2,0.88 c10.27,6.05,20.95,14.51,28.59,25.46c-0.65-0.97-1.32-1.92-2-2.86c5.57,6.84,10.24,14.31,12.86,21.66 c0.56,1.65,2.11,6.04,0.6,6.82c-0.17,0.06-0.34,0.06-0.56-0.03c-2.92-14.39-19.9-27.51-31.61-36.39 c-1.48-1.11-2.94-2.23-4.39-3.39c-2.88-2.32-5.84-5.13-8.18-8.01C67.66,22.1,69.16,19.61,72.73,21.19z"></path> </g> </g> <g> <g> <path style="fill-rule:evenodd;clip-rule:evenodd;fill:#FFFFFF;" d="M129.96,35.19v-5.47c0-1.19,0-2.25,0-3.18 s-0.01-1.6-0.02-2.01c-0.01-0.41-0.03-0.87-0.05-1.4c-0.03-0.54-0.14-0.94-0.32-1.2c-0.19-0.26-0.52-0.44-1-0.54 c-0.24-0.07-0.64-0.11-1.21-0.11c-0.35,0-0.52-0.09-0.52-0.28c0-0.21,0.23-0.32,0.68-0.32c0.38,0,0.93,0.01,1.67,0.03 c0.73,0.02,1.34,0.04,1.82,0.05c0.48,0.02,0.8,0.02,0.94,0.02c0.16,0,0.5-0.01,1.02-0.02c0.52-0.01,1.17-0.03,1.93-0.05 c0.76-0.02,1.36-0.03,1.79-0.03c1.35,0,2.49,0.02,3.43,0.07c0.94,0.05,1.95,0.17,3.03,0.39c1.08,0.22,2.15,0.59,3.18,1.1 c1.04,0.52,1.95,1.19,2.73,2.02c0.56,0.6,1.06,1.28,1.51,2.04c0.45,0.75,0.81,1.63,1.07,2.63c0.27,1.01,0.4,2.08,0.4,3.2 c0,1.23-0.15,2.4-0.46,3.5c-0.31,1.1-0.71,2.07-1.2,2.92c-0.49,0.85-1.06,1.61-1.71,2.28c-0.53,0.54-1.25,1.09-2.16,1.66 c-0.91,0.57-2.06,1.04-3.44,1.43c-1.37,0.38-2.95,0.58-4.73,0.58c-0.8,0-1.95-0.06-3.45-0.19c-1.5-0.12-2.54-0.18-3.11-0.18 c-0.28,0-0.52,0-0.71,0.01c-0.19,0.01-0.47,0.02-0.84,0.03c-0.37,0.01-0.78,0.02-1.21,0.04c-0.43,0.02-0.81,0.03-1.12,0.03 c-0.42,0-0.62-0.1-0.62-0.31c0-0.18,0.17-0.27,0.5-0.27c0.37,0,0.74-0.04,1.1-0.12c0.28-0.05,0.48-0.22,0.61-0.5 c0.12-0.29,0.22-0.69,0.29-1.22C129.91,40.93,129.96,38.73,129.96,35.19L129.96,35.19z M133.81,29.23v3.9 c0,3.41,0.02,5.5,0.06,6.28c0.05,1.34,0.16,2.13,0.33,2.36c0.25,0.34,0.71,0.63,1.38,0.88c0.67,0.25,1.56,0.37,2.67,0.37 c1.03,0,1.98-0.08,2.83-0.23c0.85-0.15,1.62-0.4,2.3-0.72c0.68-0.32,1.33-0.75,1.96-1.28c1.73-1.51,2.59-4.09,2.59-7.74 c0-1.22-0.14-2.34-0.44-3.35c-0.29-1.01-0.65-1.87-1.09-2.58c-0.44-0.71-0.92-1.32-1.44-1.81c-0.85-0.83-1.8-1.48-2.85-1.95 c-1.04-0.47-2.05-0.78-3.01-0.93c-0.97-0.15-1.93-0.23-2.88-0.23c-0.41,0-0.81,0.02-1.21,0.05c-0.39,0.04-0.66,0.09-0.81,0.16 c-0.24,0.11-0.36,0.31-0.36,0.62C133.82,23.73,133.81,25.8,133.81,29.23L133.81,29.23z M177.05,35.2v-5.47c0-1.2,0-2.26,0-3.19 c0-0.93-0.01-1.6-0.02-2.01c-0.01-0.41-0.03-0.87-0.05-1.41c-0.03-0.54-0.14-0.94-0.32-1.2c-0.18-0.26-0.52-0.44-1-0.54 c-0.24-0.07-0.64-0.11-1.21-0.11c-0.35,0-0.52-0.09-0.52-0.28c0-0.21,0.23-0.32,0.68-0.32c0.39,0,0.94,0.01,1.67,0.03 c0.72,0.02,1.3,0.04,1.75,0.05c0.45,0.02,0.71,0.02,0.81,0.02c0.27,0,0.63-0.01,1.08-0.02c0.45-0.01,0.89-0.03,1.31-0.03 c0.43-0.01,0.76-0.02,1.01-0.03c0.25-0.01,0.55-0.02,0.92-0.02c2.45,0,4.34,0.46,5.67,1.37c0.52,0.34,1,0.89,1.44,1.65 c0.44,0.76,0.66,1.62,0.66,2.59c0,0.8-0.12,1.57-0.37,2.31c-0.25,0.74-0.68,1.5-1.3,2.29c-0.62,0.79-1.42,1.59-2.4,2.39 c1.21,1.54,2.16,2.75,2.88,3.66c0.71,0.9,1.39,1.73,2.02,2.49c0.63,0.75,1.23,1.43,1.81,2.03c0.72,0.76,1.36,1.28,1.91,1.56 c0.55,0.28,1.06,0.47,1.54,0.56c0.34,0.06,0.63,0.09,0.86,0.09c0.25,0,0.37,0.08,0.37,0.25c0,0.2-0.19,0.3-0.58,0.3h-2.94 c-0.81,0-1.46-0.04-1.94-0.13c-0.47-0.08-0.93-0.24-1.36-0.46c-0.61-0.33-1.23-0.85-1.86-1.57c-0.63-0.71-1.42-1.72-2.35-3.02 c-0.42-0.58-1-1.4-1.72-2.46c-0.73-1.05-1.17-1.66-1.34-1.83c-0.12-0.14-0.3-0.21-0.55-0.21l-2.68-0.06 c-0.16,0-0.24,0.08-0.24,0.24v0.44c0,1.85,0.01,3.31,0.04,4.37c0.03,1.05,0.07,1.81,0.11,2.29c0.05,0.53,0.16,0.94,0.32,1.23 c0.17,0.29,0.46,0.45,0.88,0.5c0.6,0.08,1.1,0.12,1.51,0.12c0.25,0,0.37,0.08,0.37,0.25c0,0.2-0.21,0.3-0.62,0.3 c-0.44,0-0.94-0.01-1.49-0.03c-0.55-0.02-1.05-0.03-1.47-0.04c-0.43-0.01-0.73-0.02-0.92-0.03c-0.19-0.01-0.4-0.01-0.63-0.01 c-0.25,0-0.47,0-0.65,0.01c-0.18,0.01-0.45,0.02-0.81,0.03c-0.35,0.01-0.75,0.02-1.18,0.04c-0.43,0.02-0.81,0.03-1.13,0.03 c-0.41,0-0.62-0.1-0.62-0.3c0-0.17,0.17-0.25,0.5-0.25c0.37,0,0.74-0.04,1.1-0.12c0.28-0.05,0.48-0.22,0.61-0.5 c0.12-0.29,0.22-0.69,0.29-1.22C177,40.95,177.05,38.75,177.05,35.2L177.05,35.2z M180.68,22.74v9.42c0,0.17,0.02,0.29,0.07,0.37 c0.05,0.08,0.11,0.14,0.21,0.18c0.37,0.12,0.77,0.2,1.18,0.25c0.42,0.05,0.81,0.07,1.17,0.07c0.6,0,1.05-0.04,1.34-0.11 c0.28-0.07,0.57-0.21,0.85-0.41c1.22-0.89,1.82-2.44,1.82-4.64c0-1.98-0.5-3.42-1.49-4.33c-1-0.9-2.07-1.36-3.22-1.36 c-0.82,0-1.37,0.04-1.64,0.12C180.78,22.36,180.68,22.5,180.68,22.74L180.68,22.74z M226.95,36.09h-6.86 c-0.13,0-0.23,0.09-0.29,0.26l-1.65,4.47c-0.31,0.75-0.47,1.39-0.47,1.9c0,0.63,0.41,0.95,1.23,0.95h0.47 c0.3,0,0.45,0.09,0.45,0.26c0,0.2-0.17,0.3-0.51,0.3c-0.24,0-0.52-0.01-0.85-0.03c-0.33-0.02-0.64-0.03-0.93-0.04 c-0.29-0.01-0.53-0.02-0.71-0.03c-0.18-0.01-0.44-0.01-0.76-0.01c-0.01,0-0.43,0.01-1.24,0.03c-0.81,0.02-1.32,0.04-1.53,0.05 c-0.21,0.01-0.5,0.02-0.88,0.02c-0.39,0-0.59-0.1-0.59-0.3c0-0.17,0.12-0.26,0.37-0.26c0.31,0,0.63-0.02,0.95-0.06 c0.64-0.08,1.16-0.35,1.54-0.8c0.38-0.46,0.74-1.12,1.08-2l7.73-19.54c0.21-0.51,0.37-0.85,0.48-1.02 c0.11-0.16,0.24-0.25,0.37-0.25c0.23,0,0.49,0.34,0.79,1.02c0.09,0.19,0.39,0.95,0.92,2.26c0.52,1.31,1.11,2.79,1.75,4.44 c0.64,1.64,1.54,3.9,2.68,6.77c1.14,2.88,1.91,4.77,2.29,5.66c0.52,1.26,1,2.11,1.43,2.56c0.43,0.45,0.86,0.73,1.28,0.83 c0.41,0.08,0.84,0.12,1.29,0.12c0.26,0,0.39,0.09,0.39,0.26c0,0.12-0.09,0.2-0.28,0.24c-0.18,0.04-0.56,0.06-1.13,0.06 c-2.24,0-4.18-0.03-5.83-0.09c-0.33-0.02-0.56-0.04-0.7-0.06c-0.14-0.03-0.21-0.08-0.21-0.16c0-0.15,0.14-0.24,0.42-0.27 c0.23-0.08,0.34-0.23,0.34-0.45c0-0.05-0.02-0.13-0.06-0.26l-2.47-6.61C227.21,36.16,227.11,36.09,226.95,36.09L226.95,36.09z M220.71,34.54h5.67c0.1,0,0.15-0.06,0.15-0.18l-2.77-7.7c-0.07-0.19-0.12-0.29-0.16-0.29c-0.07,0-0.13,0.1-0.18,0.29l-2.83,7.67 C220.59,34.47,220.63,34.54,220.71,34.54L220.71,34.54z M277.68,38.69v3.41c0,0.44-0.02,0.71-0.06,0.81 c-0.04,0.1-0.15,0.21-0.34,0.33c-1.78,0.94-4.25,1.4-7.42,1.4c-1.94,0-3.76-0.24-5.47-0.72c-1.71-0.48-3.23-1.21-4.54-2.2 c-1.31-0.99-2.35-2.26-3.1-3.84c-0.75-1.57-1.13-3.38-1.13-5.44c0-1.57,0.24-3.01,0.73-4.35c0.49-1.34,1.14-2.5,1.94-3.46 c0.81-0.97,1.71-1.75,2.69-2.35c0.95-0.59,1.87-1.02,2.79-1.31c0.92-0.29,1.82-0.49,2.72-0.58c0.9-0.1,1.82-0.14,2.78-0.14 c0.95,0,2,0.06,3.17,0.18c1.17,0.12,1.93,0.23,2.28,0.31c0.9,0.22,1.72,0.34,2.44,0.37c0.29,0.02,0.44,0.14,0.44,0.37 c0-0.02-0.02,0.16-0.06,0.55c-0.04,0.38-0.07,0.99-0.1,1.8c-0.04,0.81-0.05,1.72-0.05,2.73c0,0.45-0.12,0.68-0.35,0.68 c-0.17,0-0.27-0.14-0.3-0.44c-0.17-1.13-0.52-1.98-1.06-2.55c-0.57-0.63-1.46-1.2-2.66-1.69c-1.2-0.5-2.61-0.74-4.21-0.74 c-0.7,0-1.38,0.04-2.02,0.12c-0.65,0.08-1.33,0.27-2.04,0.55c-0.72,0.29-1.39,0.7-2.02,1.24c-1.9,1.63-2.84,4.18-2.84,7.63 c0,2.2,0.44,4.2,1.33,5.99c0.89,1.79,2.15,3.18,3.78,4.19c1.63,1.01,3.5,1.51,5.61,1.51c1.25,0,2.13-0.11,2.62-0.33 c0.39-0.21,0.59-0.6,0.59-1.18v-2.93c0-1.82-0.01-3.04-0.03-3.65c-0.02-0.55-0.12-0.96-0.31-1.22c-0.18-0.26-0.52-0.45-1.02-0.57 c-0.25-0.06-0.65-0.09-1.2-0.09c-0.31,0-0.47-0.08-0.47-0.25c0-0.2,0.22-0.3,0.65-0.3c0.55,0,0.98,0.01,1.27,0.01 c0.29,0.01,0.65,0.02,1.06,0.03c0.41,0.01,0.82,0.02,1.21,0.04c0.4,0.02,0.7,0.03,0.92,0.03c0.24,0,0.54-0.01,0.9-0.03 c0.35-0.02,0.7-0.03,1.04-0.04c0.34-0.01,0.62-0.02,0.82-0.03c0.21,0,0.49-0.01,0.85-0.01c0.41,0,0.62,0.1,0.62,0.3 c0,0.17-0.14,0.25-0.41,0.25c-0.19,0-0.47,0.03-0.83,0.09c-0.41,0.09-0.69,0.27-0.87,0.56c-0.18,0.28-0.28,0.69-0.3,1.23 c-0.01,0.2-0.02,0.55-0.02,1.05c-0.01,0.49-0.01,0.95-0.01,1.35C277.68,37.77,277.68,38.21,277.68,38.69L277.68,38.69z M313.89,44.65c-2.1,0-3.94-0.36-5.53-1.07c-1.59-0.72-2.89-1.68-3.9-2.88c-1.01-1.2-1.76-2.52-2.25-3.95s-0.73-2.87-0.73-4.3 c0-1.95,0.44-3.85,1.33-5.71c0.89-1.86,2.29-3.41,4.2-4.64c1.91-1.23,4.3-1.85,7.19-1.85c1.89,0,3.61,0.27,5.18,0.82 c1.57,0.54,2.88,1.33,3.95,2.35c1.07,1.02,1.9,2.24,2.47,3.68c0.57,1.43,0.86,3.04,0.86,4.8c0,2.37-0.52,4.52-1.57,6.47 c-1.05,1.95-2.54,3.48-4.47,4.61C318.68,44.09,316.44,44.65,313.89,44.65L313.89,44.65z M315.19,43.08 c0.98,0,2.01-0.25,3.08-0.73c1.07-0.49,2.01-1.49,2.83-2.99c0.82-1.5,1.23-3.61,1.23-6.33c0-2.25-0.4-4.23-1.18-5.94 c-0.79-1.71-1.87-3.02-3.26-3.94c-1.39-0.92-2.91-1.38-4.59-1.38c-0.97,0-1.9,0.15-2.77,0.46c-0.87,0.31-1.67,0.83-2.4,1.56 c-0.73,0.73-1.32,1.74-1.76,3.02c-0.44,1.28-0.65,2.84-0.65,4.69c0,1.59,0.21,3.1,0.64,4.51c0.43,1.41,1.05,2.65,1.88,3.72 c0.83,1.07,1.84,1.9,3.03,2.49C312.48,42.78,313.78,43.08,315.19,43.08L315.19,43.08z M351.94,35.2v-5.47c0-1.2,0-2.26,0-3.19 c0-0.93-0.01-1.6-0.02-2.01c-0.01-0.41-0.03-0.87-0.05-1.41c-0.03-0.54-0.14-0.94-0.32-1.2c-0.18-0.26-0.52-0.44-1-0.54 c-0.24-0.07-0.64-0.11-1.21-0.11c-0.35,0-0.52-0.09-0.52-0.28c0-0.21,0.23-0.32,0.68-0.32c0.39,0,0.95,0.01,1.67,0.03 c0.72,0.02,1.31,0.04,1.75,0.05c0.45,0.02,0.71,0.02,0.81,0.02c0.27,0,0.63-0.01,1.08-0.02c0.45-0.01,0.89-0.03,1.32-0.03 c0.43-0.01,0.76-0.02,1.01-0.03c0.25-0.01,0.55-0.02,0.92-0.02c2.46,0,4.34,0.46,5.67,1.37c0.52,0.34,1,0.89,1.44,1.65 c0.44,0.76,0.66,1.62,0.66,2.59c0,0.8-0.12,1.57-0.37,2.31c-0.25,0.74-0.68,1.5-1.3,2.29c-0.62,0.79-1.42,1.59-2.4,2.39 c1.21,1.54,2.16,2.75,2.88,3.66c0.71,0.9,1.39,1.73,2.02,2.49c0.63,0.75,1.23,1.43,1.81,2.03c0.72,0.76,1.36,1.28,1.91,1.56 c0.55,0.28,1.06,0.47,1.54,0.56c0.34,0.06,0.63,0.09,0.86,0.09c0.25,0,0.37,0.08,0.37,0.25c0,0.2-0.2,0.3-0.59,0.3h-2.94 c-0.81,0-1.46-0.04-1.94-0.13c-0.47-0.08-0.93-0.24-1.36-0.46c-0.61-0.33-1.23-0.85-1.86-1.57c-0.63-0.71-1.42-1.72-2.35-3.02 c-0.42-0.58-1-1.4-1.72-2.46c-0.73-1.05-1.17-1.66-1.34-1.83c-0.12-0.14-0.3-0.21-0.55-0.21l-2.68-0.06 c-0.16,0-0.24,0.08-0.24,0.24v0.44c0,1.85,0.01,3.31,0.04,4.37c0.03,1.05,0.07,1.81,0.11,2.29c0.05,0.53,0.16,0.94,0.32,1.23 c0.17,0.29,0.46,0.45,0.88,0.5c0.6,0.08,1.1,0.12,1.5,0.12c0.25,0,0.37,0.08,0.37,0.25c0,0.2-0.21,0.3-0.62,0.3 c-0.44,0-0.94-0.01-1.5-0.03c-0.55-0.02-1.05-0.03-1.47-0.04c-0.43-0.01-0.73-0.02-0.92-0.03c-0.19-0.01-0.4-0.01-0.63-0.01 c-0.25,0-0.47,0-0.65,0.01c-0.18,0.01-0.45,0.02-0.81,0.03c-0.35,0.01-0.75,0.02-1.18,0.04c-0.43,0.02-0.81,0.03-1.13,0.03 c-0.41,0-0.62-0.1-0.62-0.3c0-0.17,0.17-0.25,0.5-0.25c0.37,0,0.74-0.04,1.1-0.12c0.28-0.05,0.48-0.22,0.61-0.5 c0.12-0.29,0.22-0.69,0.29-1.22C351.89,40.95,351.94,38.75,351.94,35.2L351.94,35.2z M355.58,22.74v9.42 c0,0.17,0.02,0.29,0.07,0.37c0.05,0.08,0.11,0.14,0.21,0.18c0.37,0.12,0.76,0.2,1.18,0.25c0.41,0.05,0.81,0.07,1.17,0.07 c0.6,0,1.05-0.04,1.33-0.11c0.28-0.07,0.57-0.21,0.85-0.41c1.22-0.89,1.82-2.44,1.82-4.64c0-1.98-0.5-3.42-1.49-4.33 c-1-0.9-2.07-1.36-3.22-1.36c-0.82,0-1.37,0.04-1.64,0.12C355.67,22.36,355.58,22.5,355.58,22.74L355.58,22.74z M393.75,35.2 v-5.48c0-1.19,0-2.25,0-3.19c0-0.93-0.01-1.6-0.02-2.01c-0.01-0.41-0.03-0.87-0.05-1.41c-0.06-1-0.41-1.57-1.05-1.71 c-0.28-0.09-0.65-0.14-1.11-0.14c-0.32,0-0.48-0.1-0.48-0.3c0-0.19,0.25-0.29,0.73-0.29c0.24,0,0.78,0.01,1.6,0.03 c0.83,0.03,1.39,0.04,1.7,0.05c0.3,0.01,0.53,0.02,0.7,0.02c0.14,0,0.42-0.01,0.82-0.02c0.4-0.01,0.93-0.03,1.58-0.05 c0.65-0.02,1.11-0.03,1.37-0.03c0.43,0,0.65,0.1,0.65,0.29c0,0.2-0.17,0.3-0.5,0.3c-0.27,0-0.57,0.04-0.92,0.11 c-0.41,0.07-0.69,0.24-0.86,0.5c-0.16,0.27-0.25,0.68-0.28,1.24c-0.03,0.51-0.05,1.11-0.06,1.81c-0.01,0.69-0.01,2.29-0.01,4.8 v5.48c0,0.71,0,1.42,0.01,2.12c0.01,0.7,0.01,1.32,0.02,1.88c0.01,0.55,0.02,1.04,0.03,1.46c0.02,0.43,0.04,0.88,0.07,1.35 c0.05,0.48,0.16,0.84,0.32,1.08c0.17,0.24,0.47,0.39,0.91,0.45c0.58,0.08,1.1,0.12,1.56,0.12c0.33,0,0.5,0.08,0.5,0.25 c0,0.2-0.19,0.3-0.59,0.3c-0.5-0.01-1.03-0.02-1.59-0.03c-0.56-0.01-1.05-0.02-1.47-0.03c-0.42-0.01-0.73-0.02-0.94-0.03 c-0.21-0.01-0.47-0.01-0.81-0.01c-0.28,0-0.51,0-0.7,0.01c-0.19,0.01-0.47,0.02-0.84,0.03c-0.37,0.01-0.78,0.02-1.21,0.04 c-0.43,0.02-0.81,0.03-1.13,0.03c-0.41,0-0.62-0.1-0.62-0.3c0-0.17,0.17-0.25,0.5-0.25c0.37,0,0.74-0.04,1.1-0.12 c0.29-0.06,0.5-0.22,0.63-0.47c0.13-0.25,0.22-0.62,0.27-1.09c0.06-0.57,0.1-1.15,0.11-1.75c0.02-0.6,0.03-1.36,0.03-2.27 C393.75,37.05,393.75,36.13,393.75,35.2L393.75,35.2z M427.62,26.9l0.35,13.11c0.03,1.11,0.13,1.94,0.31,2.48 c0.18,0.53,0.43,0.86,0.75,0.97c0.41,0.14,0.95,0.21,1.61,0.21c0.35,0,0.52,0.08,0.52,0.25c0,0.2-0.24,0.3-0.72,0.3 c-0.5,0-0.86-0.01-1.08-0.02c-0.22-0.01-0.71-0.03-1.47-0.05c-0.75-0.02-1.18-0.03-1.27-0.03c-0.01,0-0.34,0.01-1.01,0.03 c-0.66,0.02-1.11,0.04-1.36,0.05c-0.24,0.01-0.56,0.02-0.96,0.02c-0.45,0-0.68-0.1-0.68-0.3c0-0.17,0.16-0.25,0.5-0.25 c0.57,0,1.03-0.05,1.38-0.15c0.38-0.11,0.63-0.43,0.75-0.97c0.12-0.53,0.19-1.49,0.21-2.88l0.27-18.44c0-0.71,0.14-1.07,0.4-1.07 c0.15,0,0.31,0.08,0.47,0.23c0.16,0.16,0.38,0.41,0.68,0.74c0,0,0.58,0.62,1.73,1.86c1.15,1.24,2.38,2.55,3.7,3.92 c1.31,1.37,2.68,2.78,4.11,4.21c0.48,0.46,1.06,1.05,1.73,1.76c0.67,0.7,1.26,1.33,1.78,1.87c0.51,0.54,1.16,1.22,1.94,2.04 c0.78,0.82,1.23,1.29,1.33,1.42h0.15l-0.3-13.96c-0.01-0.93-0.09-1.59-0.25-1.99c-0.15-0.39-0.43-0.66-0.81-0.81 c-0.31-0.13-0.85-0.2-1.62-0.2c-0.33,0-0.5-0.09-0.5-0.27c0-0.21,0.27-0.31,0.79-0.31c0.38,0,0.87,0.01,1.47,0.03 c0.6,0.02,1.09,0.04,1.49,0.05c0.4,0.02,0.66,0.02,0.77,0.02c0.03,0,0.2-0.01,0.51-0.02c0.31-0.01,0.71-0.03,1.21-0.05 c0.49-0.02,0.92-0.03,1.31-0.03c0.47,0,0.71,0.1,0.71,0.31c0,0.19-0.19,0.27-0.56,0.27c-0.37,0-0.68,0.04-0.93,0.11 c-0.43,0.12-0.72,0.37-0.88,0.75c-0.15,0.38-0.24,1.01-0.25,1.89l-0.34,19.61c0,0.64-0.13,0.96-0.4,0.96 c-0.24,0-0.59-0.23-1.04-0.68c-0.72-0.72-1.43-1.43-2.13-2.14c-0.7-0.7-1.6-1.62-2.72-2.74c-1.11-1.13-1.96-1.99-2.55-2.59 c-0.59-0.6-1.15-1.16-1.7-1.69c-0.58-0.58-1.37-1.39-2.36-2.44c-0.99-1.04-1.89-2.02-2.71-2.92c-0.82-0.9-1.4-1.54-1.74-1.92 c-0.34-0.38-0.51-0.57-0.52-0.58H427.62L427.62,26.9z M473.96,35.2v-5.48c0-1.19,0-2.25,0-3.19c0-0.93-0.01-1.6-0.02-2.01 c-0.01-0.41-0.03-0.87-0.05-1.41c-0.06-1-0.41-1.57-1.05-1.71c-0.28-0.09-0.65-0.14-1.11-0.14c-0.32,0-0.48-0.1-0.48-0.3 c0-0.19,0.25-0.29,0.73-0.29c0.24,0,0.78,0.01,1.6,0.03c0.83,0.03,1.39,0.04,1.7,0.05c0.3,0.01,0.53,0.02,0.7,0.02 c0.14,0,0.42-0.01,0.82-0.02c0.4-0.01,0.93-0.03,1.58-0.05c0.65-0.02,1.11-0.03,1.37-0.03c0.43,0,0.65,0.1,0.65,0.29 c0,0.2-0.17,0.3-0.5,0.3c-0.27,0-0.57,0.04-0.92,0.11c-0.41,0.07-0.69,0.24-0.86,0.5c-0.16,0.27-0.25,0.68-0.28,1.24 c-0.03,0.51-0.05,1.11-0.06,1.81c-0.01,0.69-0.01,2.29-0.01,4.8v5.48c0,0.71,0,1.42,0.01,2.12c0.01,0.7,0.01,1.32,0.02,1.88 c0.01,0.55,0.02,1.04,0.03,1.46c0.02,0.43,0.04,0.88,0.07,1.35c0.05,0.48,0.16,0.84,0.32,1.08c0.17,0.24,0.47,0.39,0.91,0.45 c0.58,0.08,1.1,0.12,1.56,0.12c0.33,0,0.5,0.08,0.5,0.25c0,0.2-0.19,0.3-0.59,0.3c-0.5-0.01-1.03-0.02-1.59-0.03 c-0.56-0.01-1.05-0.02-1.47-0.03c-0.42-0.01-0.73-0.02-0.94-0.03c-0.21-0.01-0.47-0.01-0.81-0.01c-0.28,0-0.51,0-0.7,0.01 c-0.2,0.01-0.47,0.02-0.84,0.03c-0.37,0.01-0.78,0.02-1.21,0.04c-0.43,0.02-0.81,0.03-1.13,0.03c-0.41,0-0.62-0.1-0.62-0.3 c0-0.17,0.17-0.25,0.5-0.25c0.37,0,0.74-0.04,1.1-0.12c0.29-0.06,0.5-0.22,0.63-0.47c0.13-0.25,0.22-0.62,0.27-1.09 c0.06-0.57,0.1-1.15,0.11-1.75c0.02-0.6,0.03-1.36,0.03-2.27C473.96,37.05,473.96,36.13,473.96,35.2z"></path> </g> <path style="fill-rule:evenodd;clip-rule:evenodd;fill:#D02F52;" d="M203.69,79.5h-3.59l-6.62-8.48v8.48h-3.59V65.65h3.59 l6.62,8.47v-8.47h3.59V79.5L203.69,79.5z M216.72,79.5h-7.87V65.65h7.87v2.99h-4.28v2.39h4.05v2.99h-4.05v2.49h4.28V79.5 L216.72,79.5z M229.46,68.64h-2.99V79.5h-3.59V68.64h-2.93v-2.99h9.51V68.64L229.46,68.64z M252.89,65.65l-4.42,13.85h-3.67 l-2.52-8.02l-2.65,8.02h-3.66l-4.13-13.85h3.76l2.4,8.95l2.93-8.95h2.86l2.73,8.95l2.62-8.95H252.89L252.89,65.65z M271.29,72.62 c0,1.88-0.63,3.53-1.88,4.95c-1.43,1.62-3.36,2.43-5.79,2.43c-2.43,0-4.36-0.81-5.78-2.43c-1.25-1.42-1.88-3.07-1.88-4.95 c0-0.86,0.17-1.74,0.51-2.64c0.34-0.9,0.79-1.68,1.36-2.32c1.43-1.62,3.36-2.43,5.79-2.43c2.43,0,4.36,0.81,5.79,2.43 C270.66,69.08,271.29,70.74,271.29,72.62L271.29,72.62z M267.55,72.62c0-0.98-0.31-1.82-0.93-2.53c-0.8-0.91-1.8-1.36-2.99-1.36 c-0.83,0-1.57,0.23-2.25,0.7c-0.67,0.47-1.15,1.09-1.43,1.86c-0.16,0.44-0.24,0.89-0.24,1.34c0,0.94,0.31,1.78,0.93,2.52 c0.77,0.92,1.76,1.37,2.99,1.37c1.22,0,2.21-0.45,2.99-1.36C267.24,74.42,267.55,73.58,267.55,72.62L267.55,72.62z M287.3,79.5 h-4.46l-3.43-5.3v5.3h-3.59V65.65h5.59c1.64,0,2.84,0.49,3.63,1.47c0.63,0.79,0.95,1.72,0.95,2.79c0,1.23-0.36,2.21-1.09,2.94 c-0.47,0.47-1.11,0.79-1.93,0.98L287.3,79.5L287.3,79.5z M282.26,70.12c0-0.49-0.18-0.91-0.54-1.25 c-0.34-0.32-0.88-0.48-1.63-0.48h-0.67v3.47h0.67c0.76,0,1.31-0.16,1.63-0.48C282.08,71.04,282.26,70.62,282.26,70.12 L282.26,70.12z M304,79.5h-4.65l-4.67-6v6h-3.59V65.65h3.59v5.71l4.38-5.71h4.42L298,72.21L304,79.5L304,79.5z M334.06,72.62 c0,1.88-0.63,3.53-1.88,4.95c-1.43,1.62-3.36,2.43-5.79,2.43c-2.43,0-4.36-0.81-5.78-2.43c-1.25-1.42-1.87-3.07-1.87-4.95 c0-0.86,0.17-1.74,0.51-2.64c0.34-0.9,0.79-1.68,1.36-2.32c1.43-1.62,3.36-2.43,5.79-2.43c2.43,0,4.36,0.81,5.79,2.43 C333.43,69.08,334.06,70.74,334.06,72.62L334.06,72.62z M330.32,72.62c0-0.98-0.31-1.82-0.93-2.53c-0.8-0.91-1.8-1.36-2.99-1.36 c-0.83,0-1.57,0.23-2.25,0.7c-0.67,0.47-1.15,1.09-1.43,1.86c-0.16,0.44-0.24,0.89-0.24,1.34c0,0.94,0.31,1.78,0.93,2.52 c0.77,0.92,1.77,1.37,2.99,1.37c1.22,0,2.21-0.45,2.99-1.36C330.01,74.42,330.32,73.58,330.32,72.62L330.32,72.62z M352.4,79.5 h-3.59l-6.62-8.48v8.48h-3.59V65.65h3.59l6.62,8.47v-8.47h3.59V79.5L352.4,79.5z M376.98,68.64h-4.34v2.39h3.94v2.99h-3.94v5.48 h-3.59V65.65h7.93V68.64L376.98,68.64z M384.97,79.5h-3.59V65.65h3.59V79.5L384.97,79.5z M401.62,79.5h-4.46l-3.43-5.3v5.3h-3.59 V65.65h5.59c1.64,0,2.85,0.49,3.63,1.47c0.63,0.79,0.95,1.72,0.95,2.79c0,1.23-0.36,2.21-1.09,2.94 c-0.47,0.47-1.11,0.79-1.93,0.98L401.62,79.5L401.62,79.5z M396.57,70.12c0-0.49-0.18-0.91-0.54-1.25 c-0.33-0.32-0.88-0.48-1.63-0.48h-0.67v3.47h0.67c0.76,0,1.31-0.16,1.63-0.48C396.39,71.04,396.57,70.62,396.57,70.12 L396.57,70.12z M413.27,79.5h-7.87V65.65h7.87v2.99H409v2.39h4.05v2.99H409v2.49h4.28V79.5z"></path> </g> </g> </svg> 